<svg width="552" height="208" viewBox="0 0 552 208" fill="none" xmlns="http://www.w3.org/2000/svg">
<path d="M12.5 172.5L122.5 18.5C127.5 10.5 140.5 10.5 145.5 18.5L253.5 172.5" stroke="white" stroke-width="25" stroke-linecap="round" stroke-linejoin="round"/>
<path d="M72.5 172.5L136.5 82.5L198.5 172.5" stroke="#B260FF" stroke-width="25" stroke-linecap="round" stroke-linejoin="round"/>
<path d="M292.625 175.5V103.5H303.312V114.375H304.063C305.375 110.813 307.75 107.922 311.188 105.703C314.625 103.484 318.5 102.375 322.813 102.375C323.625 102.375 324.641 102.391 325.859 102.422C327.078 102.453 328 102.5 328.625 102.563V113.812C328.25 113.719 327.391 113.578 326.047 113.391C324.734 113.172 323.344 113.062 321.875 113.062C318.375 113.062 315.25 113.797 312.5 115.266C309.781 116.703 307.625 118.703 306.031 121.266C304.469 123.797 303.688 126.687 303.688 129.937V175.5H292.625ZM368.797 177C362.297 177 356.594 175.453 351.688 172.359C346.813 169.266 343 164.937 340.25 159.375C337.531 153.812 336.172 147.312 336.172 139.875C336.172 132.375 337.531 125.828 340.25 120.234C343 114.641 346.813 110.297 351.688 107.203C356.594 104.109 362.297 102.563 368.797 102.563C375.297 102.563 380.984 104.109 385.859 107.203C390.766 110.297 394.578 114.641 397.297 120.234C400.047 125.828 401.422 132.375 401.422 139.875C401.422 147.312 400.047 153.812 397.297 159.375C394.578 164.937 390.766 169.266 385.859 172.359C380.984 175.453 375.297 177 368.797 177ZM368.797 167.063C373.734 167.063 377.797 165.797 380.984 163.266C384.172 160.734 386.531 157.406 388.063 153.281C389.594 149.156 390.359 144.687 390.359 139.875C390.359 135.062 389.594 130.578 388.063 126.422C386.531 122.266 384.172 118.906 380.984 116.344C377.797 113.781 373.734 112.5 368.797 112.5C363.859 112.5 359.797 113.781 356.609 116.344C353.422 118.906 351.063 122.266 349.531 126.422C348 130.578 347.234 135.062 347.234 139.875C347.234 144.687 348 149.156 349.531 153.281C351.063 157.406 353.422 160.734 356.609 163.266C359.797 165.797 363.859 167.063 368.797 167.063ZM474.605 103.5L447.98 175.5H436.73L410.105 103.5H422.105L441.98 160.875H442.73L462.605 103.5H474.605ZM508.203 177.188C503.641 177.188 499.5 176.328 495.781 174.609C492.063 172.859 489.109 170.344 486.922 167.063C484.734 163.75 483.641 159.75 483.641 155.062C483.641 150.937 484.453 147.594 486.078 145.031C487.703 142.437 489.875 140.406 492.594 138.937C495.312 137.469 498.313 136.375 501.594 135.656C504.906 134.906 508.234 134.313 511.578 133.875C515.953 133.312 519.5 132.891 522.219 132.609C524.969 132.297 526.969 131.781 528.219 131.062C529.5 130.344 530.141 129.094 530.141 127.312V126.937C530.141 122.312 528.875 118.719 526.344 116.156C523.844 113.594 520.047 112.312 514.953 112.312C509.672 112.312 505.531 113.469 502.531 115.781C499.531 118.094 497.422 120.562 496.203 123.187L485.703 119.437C487.578 115.062 490.078 111.656 493.203 109.219C496.359 106.75 499.797 105.031 503.516 104.062C507.266 103.063 510.953 102.563 514.578 102.563C516.891 102.563 519.547 102.844 522.547 103.406C525.578 103.937 528.5 105.047 531.313 106.734C534.156 108.422 536.516 110.969 538.391 114.375C540.266 117.781 541.203 122.344 541.203 128.062V175.5H530.141V165.75H529.578C528.828 167.312 527.578 168.984 525.828 170.766C524.078 172.547 521.75 174.062 518.844 175.312C515.938 176.563 512.391 177.188 508.203 177.188ZM509.891 167.25C514.266 167.25 517.953 166.391 520.953 164.672C523.984 162.953 526.266 160.734 527.797 158.016C529.359 155.297 530.141 152.437 530.141 149.437V139.312C529.672 139.875 528.641 140.391 527.047 140.859C525.484 141.297 523.672 141.687 521.609 142.031C519.578 142.344 517.594 142.625 515.656 142.875C513.75 143.094 512.203 143.281 511.016 143.437C508.141 143.812 505.453 144.422 502.953 145.266C500.484 146.078 498.484 147.312 496.953 148.969C495.453 150.594 494.703 152.812 494.703 155.625C494.703 159.469 496.125 162.375 498.969 164.344C501.844 166.281 505.484 167.25 509.891 167.25Z" fill="white"/>
</svg>
